<?xml version="1.0" standalone="no"?>
<!DOCTYPE svg PUBLIC "-//W3C//DTD SVG 20010904//EN"
 "http://www.w3.org/TR/2001/REC-SVG-20010904/DTD/svg10.dtd">
<svg version="1.0" xmlns="http://www.w3.org/2000/svg"
 width="16.000000pt" height="16.000000pt" viewBox="0 0 16.000000 16.000000"
 preserveAspectRatio="xMidYMid meet">
<metadata>
Created by potrace 1.11, written by Peter Selinger 2001-2013
</metadata>
<g transform="translate(0.000000,16.000000) scale(0.003137,-0.003137)"
fill="#000000" stroke="none">
<path d="M4570 5087 c-74 -10 -168 -56 -224 -108 -51 -46 -112 -158 -122 -224
-4 -22 -7 -681 -7 -1465 0 -1591 -5 -1483 70 -1593 59 -85 147 -150 236 -172
l27 -7 0 -668 0 -668 -104 -4 c-96 -3 -106 -5 -125 -27 -29 -34 -28 -85 4
-116 l24 -25 280 0 c154 0 287 3 296 6 19 8 45 55 45 84 0 12 -13 35 -29 51
-28 28 -33 29 -125 29 l-96 0 0 668 0 669 41 12 c102 31 201 121 253 230 l31
66 3 1454 c3 1606 6 1507 -60 1615 -49 81 -156 165 -230 182 -62 14 -138 19
-188 11z"/>
<path d="M343 4991 c-117 -40 -203 -117 -256 -229 l-32 -67 -3 -1454 c-2
-1310 -1 -1460 14 -1510 20 -71 64 -144 117 -193 45 -41 148 -98 179 -98 17 0
18 -25 18 -630 l0 -630 -96 0 c-92 0 -97 -1 -125 -29 -16 -16 -29 -39 -29 -51
0 -29 26 -76 45 -84 9 -3 142 -6 296 -6 l280 0 24 25 c25 24 32 65 19 100 -12
31 -59 45 -154 45 l-90 0 0 630 c0 593 1 630 18 630 33 0 143 59 188 102 45
42 109 155 120 213 4 17 6 671 7 1455 0 1050 -3 1439 -12 1480 -30 144 -155
269 -308 310 -58 15 -162 11 -220 -9z"/>
<path d="M1279 4159 c-90 -32 -158 -91 -199 -174 l-25 -50 0 -925 0 -925 25
-49 c35 -69 100 -132 167 -164 58 -27 59 -27 313 -29 140 -1 262 -2 270 -2 8
-1 -59 -75 -149 -165 l-165 -165 -213 -3 -214 -3 -19 -25 c-19 -24 -20 -50
-20 -723 l0 -698 27 -25 26 -24 1452 2 c1418 3 1452 3 1471 22 18 19 19 43 21
720 3 679 2 702 -17 726 l-19 25 -214 3 -213 3 -165 165 c-119 119 -158 164
-144 165 11 0 121 1 245 1 137 1 244 5 276 13 96 22 171 83 221 177 l28 53 0
925 0 925 -34 62 c-37 69 -94 122 -168 156 l-48 22 -1232 1 c-1167 1 -1235 0
-1284 -17z"/>
</g>
</svg>
